<svg width="25" height="24" viewBox="0 0 25 24" fill="none" xmlns="http://www.w3.org/2000/svg">
<path d="M21.5889 20.0625L19.5264 3.5625C19.4807 3.19993 19.3042 2.8665 19.0301 2.62483C18.756 2.38316 18.4031 2.24987 18.0376 2.25H7.16262C6.79718 2.24987 6.44427 2.38316 6.17015 2.62483C5.89602 2.8665 5.71955 3.19993 5.67387 3.5625L3.61137 20.0625C3.58477 20.2737 3.60341 20.4881 3.66607 20.6915C3.72873 20.895 3.83396 21.0827 3.97478 21.2423C4.1156 21.402 4.28878 21.5298 4.4828 21.6173C4.67683 21.7048 4.88727 21.7501 5.10012 21.75H8.91481C9.24839 21.7501 9.57248 21.6389 9.83582 21.4342C10.0992 21.2294 10.2867 20.9427 10.3689 20.6194L12.6001 11.9944L14.8304 20.6138C14.9116 20.9383 15.0988 21.2263 15.3624 21.4322C15.6261 21.6381 15.9509 21.7499 16.2854 21.75H20.1001C20.313 21.7501 20.5234 21.7048 20.7174 21.6173C20.9115 21.5298 21.0847 21.402 21.2255 21.2423C21.3663 21.0827 21.4715 20.895 21.5342 20.6915C21.5968 20.4881 21.6155 20.2737 21.5889 20.0625ZM18.6845 8.925C18.1479 8.80183 17.6554 8.53397 17.2603 8.15052C16.8653 7.76706 16.5829 7.28268 16.4439 6.75H18.4126L18.6845 8.925ZM18.0376 3.75L18.2251 5.25H6.97512L7.16262 3.75H18.0376ZM6.78762 6.75H8.75637C8.61732 7.28268 8.33494 7.76706 7.93991 8.15052C7.54489 8.53397 7.05233 8.80183 6.51575 8.925L6.78762 6.75ZM8.91481 20.25H5.10012L6.31887 10.4747C7.29572 10.371 8.21195 9.95099 8.92814 9.27864C9.64433 8.60628 10.1213 7.71836 10.2864 6.75H11.8501V8.90625L8.91481 20.25ZM16.2836 20.2444L13.3501 8.90625V6.75H14.9139C15.079 7.71836 15.5559 8.60628 16.2721 9.27864C16.9883 9.95099 17.9045 10.371 18.8814 10.4747L20.1001 20.25L16.2836 20.2444Z" fill="#181818"/>
</svg>
