<svg width="25" height="24" viewBox="0 0 25 24" fill="none" xmlns="http://www.w3.org/2000/svg">
<path d="M18.6027 1.5H10.3527C9.95487 1.5 9.57334 1.65804 9.29204 1.93934C9.01073 2.22064 8.8527 2.60218 8.8527 3V10.1897L5.21988 13.8216C4.20357 14.8614 3.63825 16.2601 3.64658 17.7141C3.6549 19.1681 4.2362 20.5602 5.26435 21.5883C6.29251 22.6165 7.6846 23.1978 9.13861 23.2061C10.5926 23.2144 11.9913 22.6491 13.0311 21.6328L19.4464 15.2194C19.6558 15.0104 19.8217 14.7619 19.9343 14.4883C20.047 14.2147 20.1042 13.9215 20.1027 13.6256V3C20.1027 2.60218 19.9447 2.22064 19.6634 1.93934C19.3821 1.65804 19.0005 1.5 18.6027 1.5ZM18.6027 3V4.5H10.3527V3H18.6027ZM11.9699 20.5716C11.5979 20.9521 11.1541 21.255 10.6643 21.4628C10.1744 21.6706 9.64817 21.7792 9.11606 21.7822C8.58394 21.7852 8.05652 21.6826 7.56433 21.4804C7.07213 21.2782 6.62495 20.9803 6.24869 20.604C5.87242 20.2277 5.57454 19.7806 5.3723 19.2884C5.17006 18.7962 5.06748 18.2688 5.0705 17.7366C5.07351 17.2045 5.18207 16.6783 5.38988 16.1884C5.59769 15.6986 5.90062 15.2548 6.28113 14.8828L10.1333 11.0306C10.2029 10.9609 10.2582 10.8782 10.2958 10.7871C10.3334 10.6961 10.3528 10.5985 10.3527 10.5V6H18.6027V9.80437C17.354 9.98638 16.2124 10.6113 15.3863 11.5652C14.5602 12.519 14.1046 13.7381 14.1027 15C14.0993 15.9498 14.3564 16.8824 14.8461 17.6962L11.9699 20.5716ZM18.3833 14.1562L15.9543 16.5853C15.7215 16.0893 15.6015 15.5479 15.6027 15C15.6036 14.1359 15.9026 13.2986 16.4491 12.6293C16.9956 11.9599 17.7562 11.4996 18.6027 11.3259V13.6284C18.6021 13.8264 18.5233 14.0162 18.3833 14.1562Z" fill="#181818"/>
</svg>
