<svg width="29" height="28" viewBox="0 0 29 28" fill="none" xmlns="http://www.w3.org/2000/svg">
<g clip-path="url(#clip0_280_3807)">
<path d="M27.6783 6.69594L22.017 3.60938C21.8888 3.5384 21.7447 3.50079 21.5981 3.5H18.0981C17.866 3.5 17.6435 3.59219 17.4794 3.75628C17.3153 3.92038 17.2231 4.14294 17.2231 4.375C17.2231 5.07119 16.9466 5.73887 16.4543 6.23116C15.962 6.72344 15.2943 7 14.5981 7C13.9019 7 13.2342 6.72344 12.742 6.23116C12.2497 5.73887 11.9731 5.07119 11.9731 4.375C11.9731 4.14294 11.8809 3.92038 11.7168 3.75628C11.5527 3.59219 11.3302 3.5 11.0981 3.5H7.59811C7.45115 3.50061 7.30671 3.53822 7.17811 3.60938L1.51796 6.69594C1.11447 6.90917 0.812013 7.2737 0.676896 7.7096C0.541779 8.1455 0.585034 8.61719 0.797176 9.02125L2.90483 13.0473C3.05808 13.3368 3.2878 13.5787 3.56897 13.7467C3.85014 13.9146 4.172 14.0023 4.49952 14H6.72311V22.75C6.72311 23.2141 6.90749 23.6592 7.23568 23.9874C7.56386 24.3156 8.00898 24.5 8.47311 24.5H20.7231C21.1872 24.5 21.6324 24.3156 21.9605 23.9874C22.2887 23.6592 22.4731 23.2141 22.4731 22.75V14H24.6978C25.0253 14.0023 25.3472 13.9146 25.6284 13.7467C25.9095 13.5787 26.1392 13.3368 26.2925 13.0473L28.4001 9.02125C28.6122 8.61706 28.6553 8.14526 28.52 7.70935C28.3846 7.27343 28.0819 6.90898 27.6783 6.69594ZM4.49952 12.25C4.48335 12.2508 4.46745 12.2457 4.45468 12.2358L2.35796 8.23156L6.72311 5.84938V12.25H4.49952ZM20.7231 22.75H8.47311V5.25H10.3106C10.5125 6.23783 11.0494 7.12561 11.8304 7.76319C12.6115 8.40077 13.5888 8.74902 14.597 8.74902C15.6053 8.74902 16.5826 8.40077 17.3636 7.76319C18.1447 7.12561 18.6815 6.23783 18.8834 5.25H20.7231V22.75ZM24.7426 12.2347C24.7366 12.2401 24.7295 12.2443 24.7218 12.2469C24.7141 12.2496 24.7059 12.2506 24.6978 12.25H22.4731V5.84938L26.8394 8.23156L24.7426 12.2347Z" fill="#181818"/>
</g>
<defs>
<clipPath id="clip0_280_3807">
<rect width="28" height="28" fill="white" transform="translate(0.599609)"/>
</clipPath>
</defs>
</svg>
