<svg width="25" height="24" viewBox="0 0 25 24" fill="none" xmlns="http://www.w3.org/2000/svg">
<path d="M12.5996 2.25C10.0147 2.25298 7.53644 3.28116 5.70861 5.109C3.88077 6.93683 2.85259 9.41505 2.84961 12V17.25C2.84961 17.8467 3.08666 18.419 3.50862 18.841C3.93058 19.2629 4.50287 19.5 5.09961 19.5C5.57758 19.4992 6.043 19.3469 6.42898 19.065C7.56805 18.2372 9.56211 17.25 12.5996 17.25C15.6371 17.25 17.6312 18.2363 18.7693 19.0641C19.1046 19.3099 19.5014 19.458 19.9157 19.4919C20.3301 19.5259 20.7457 19.4444 21.1165 19.2565C21.4874 19.0686 21.7989 18.7817 22.0166 18.4275C22.2342 18.0733 22.3495 17.6657 22.3496 17.25V12C22.3466 9.41505 21.3184 6.93683 19.4906 5.109C17.6628 3.28116 15.1846 2.25298 12.5996 2.25ZM20.8496 12V12.8316C19.6533 12.0913 18.3622 11.5167 17.0115 11.1234C16.7213 8.53734 15.7911 6.06435 14.3049 3.92813C16.1548 4.32144 17.8138 5.33744 19.005 6.80649C20.1961 8.27555 20.8472 10.1087 20.8496 12ZM12.5996 4.15031C14.0972 6.0732 15.0783 8.34709 15.4496 10.7559C13.5637 10.4147 11.6318 10.4147 9.74586 10.7559C10.1216 8.34771 11.1037 6.0746 12.5996 4.15031ZM10.8943 3.92813C9.40799 6.06462 8.47776 8.53795 8.18773 11.1244C6.83704 11.5177 5.5459 12.0923 4.34961 12.8325V12C4.35203 10.1087 5.00316 8.27555 6.19427 6.80649C7.38538 5.33744 9.04439 4.32144 10.8943 3.92813ZM20.4427 17.9166C20.318 17.9809 20.1777 18.0089 20.0378 17.9975C19.898 17.9861 19.7641 17.9356 19.6515 17.8519C18.3334 16.8938 16.0402 15.75 12.5996 15.75C9.15898 15.75 6.86586 16.8938 5.54773 17.8519C5.43511 17.9356 5.30125 17.9861 5.16137 17.9975C5.02149 18.0089 4.88122 17.9809 4.75648 17.9166C4.63239 17.8555 4.52823 17.7604 4.45618 17.6424C4.38413 17.5244 4.34716 17.3883 4.34961 17.25V14.6316C6.76011 12.92 9.64327 12.0005 12.5996 12.0005C15.556 12.0005 18.4391 12.92 20.8496 14.6316V17.25C20.8521 17.3883 20.8151 17.5244 20.743 17.6424C20.671 17.7604 20.5668 17.8555 20.4427 17.9166Z" fill="#181818"/>
</svg>
