<svg width="128" height="24" viewBox="0 0 128 24" fill="none" xmlns="http://www.w3.org/2000/svg">
<path d="M16.152 23.568C14.8933 23.568 13.752 23.28 12.728 22.704C11.7253 22.128 10.936 21.3387 10.36 20.336C9.784 19.3333 9.496 18.1813 9.496 16.88V6.57601C9.496 6.19201 9.4 5.84001 9.208 5.52001C9.016 5.20001 8.76 4.94401 8.44 4.75201C8.12 4.56001 7.768 4.46401 7.384 4.46401C7 4.46401 6.648 4.56001 6.328 4.75201C6.02933 4.94401 5.784 5.20001 5.592 5.52001C5.4 5.84001 5.304 6.19201 5.304 6.57601V23.216H0.727997V7.12001C0.727997 5.88267 1.00533 4.76267 1.56 3.76001C2.11466 2.75734 2.89333 1.95734 3.896 1.36001C4.89866 0.74134 6.06133 0.432007 7.384 0.432007C8.728 0.432007 9.90133 0.74134 10.904 1.36001C11.9067 1.95734 12.6853 2.75734 13.24 3.76001C13.7947 4.76267 14.072 5.88267 14.072 7.12001V17.424C14.072 17.808 14.168 18.16 14.36 18.48C14.552 18.8 14.7973 19.056 15.096 19.248C15.416 19.44 15.768 19.536 16.152 19.536C16.536 19.536 16.888 19.44 17.208 19.248C17.528 19.056 17.784 18.8 17.976 18.48C18.168 18.16 18.264 17.808 18.264 17.424V7.12001C18.264 5.88267 18.5413 4.76267 19.096 3.76001C19.6507 2.75734 20.4293 1.95734 21.432 1.36001C22.456 0.74134 23.6293 0.432007 24.952 0.432007C26.296 0.432007 27.4587 0.74134 28.44 1.36001C29.4427 1.95734 30.2213 2.75734 30.776 3.76001C31.3307 4.76267 31.608 5.88267 31.608 7.12001V23.216H27.032V6.57601C27.032 6.19201 26.936 5.84001 26.744 5.52001C26.5733 5.20001 26.328 4.94401 26.008 4.75201C25.688 4.56001 25.336 4.46401 24.952 4.46401C24.568 4.46401 24.216 4.56001 23.896 4.75201C23.576 4.94401 23.32 5.20001 23.128 5.52001C22.936 5.84001 22.84 6.19201 22.84 6.57601V16.88C22.84 18.1813 22.5413 19.3333 21.944 20.336C21.368 21.3387 20.5787 22.128 19.576 22.704C18.5733 23.28 17.432 23.568 16.152 23.568Z" fill="black"/>
<path d="M42.408 20.5441C40.7227 20.5441 39.2187 20.1707 37.896 19.4241C36.5733 18.6561 35.528 17.6321 34.76 16.3521C33.992 15.0507 33.608 13.6001 33.608 12.0001C33.608 10.4001 33.992 8.96006 34.76 7.68006C35.528 6.37872 36.5733 5.35472 37.896 4.60805C39.2187 3.84005 40.7227 3.45605 42.408 3.45605C44.0933 3.45605 45.5973 3.84005 46.92 4.60805C48.2427 5.35472 49.288 6.37872 50.056 7.68006C50.824 8.96006 51.208 10.4001 51.208 12.0001C51.208 13.6001 50.824 15.0507 50.056 16.3521C49.288 17.6321 48.2427 18.6561 46.92 19.4241C45.5973 20.1707 44.0933 20.5441 42.408 20.5441ZM42.408 16.8001C43.304 16.8001 44.072 16.5867 44.712 16.1601C45.3733 15.7334 45.8747 15.1574 46.216 14.4321C46.5787 13.7067 46.76 12.8961 46.76 12.0001C46.76 11.1041 46.5787 10.2934 46.216 9.56805C45.8747 8.84272 45.3733 8.26672 44.712 7.84006C44.072 7.41339 43.304 7.20005 42.408 7.20005C41.512 7.20005 40.7333 7.41339 40.072 7.84006C39.432 8.26672 38.9307 8.84272 38.568 9.56805C38.2267 10.2934 38.056 11.1041 38.056 12.0001C38.056 12.8961 38.2267 13.7067 38.568 14.4321C38.9307 15.1574 39.432 15.7334 40.072 16.1601C40.7333 16.5867 41.512 16.8001 42.408 16.8001Z" fill="black"/>
<path d="M61.816 23.8721C60.4293 23.8721 59.2027 23.6587 58.136 23.2321C57.0693 22.7841 56.1733 22.1654 55.448 21.3761C54.7227 20.5654 54.168 19.6267 53.784 18.5601C53.4 17.4721 53.208 16.2881 53.208 15.0081C53.208 13.3867 53.528 11.9681 54.168 10.7521C54.8293 9.51472 55.7467 8.54405 56.92 7.84005C58.0933 7.13605 59.48 6.78405 61.08 6.78405C61.7627 6.78405 62.4133 6.88005 63.032 7.07205C63.672 7.26405 64.2373 7.54139 64.728 7.90405C65.24 8.26672 65.6667 8.69338 66.008 9.18405H66.04V0.128052H70.424V15.0081C70.424 16.8001 70.072 18.3681 69.368 19.7121C68.664 21.0347 67.6613 22.0587 66.36 22.7841C65.08 23.5094 63.5653 23.8721 61.816 23.8721ZM61.816 20.1281C62.6693 20.1281 63.4053 19.9147 64.024 19.4881C64.664 19.0614 65.144 18.4854 65.464 17.7601C65.8053 17.0347 65.976 16.2241 65.976 15.3281C65.976 14.4321 65.8053 13.6214 65.464 12.8961C65.144 12.1707 64.664 11.5947 64.024 11.1681C63.4053 10.7414 62.6693 10.5281 61.816 10.5281C60.9413 10.5281 60.1947 10.7414 59.576 11.1681C58.9573 11.5947 58.4773 12.1707 58.136 12.8961C57.816 13.6214 57.656 14.4321 57.656 15.3281C57.656 16.2241 57.816 17.0347 58.136 17.7601C58.4773 18.4854 58.9573 19.0614 59.576 19.4881C60.1947 19.9147 60.9413 20.1281 61.816 20.1281Z" fill="black"/>
<path d="M79.816 20.5441C78.3227 20.5441 77.0213 20.1601 75.912 19.3921C74.8027 18.6241 73.9387 17.6001 73.32 16.3201C72.7227 15.0187 72.424 13.5894 72.424 12.0321C72.424 10.4321 72.7653 8.98139 73.448 7.68006C74.152 6.37872 75.1547 5.35472 76.456 4.60805C77.7573 3.84005 79.3147 3.45605 81.128 3.45605C82.9627 3.45605 84.5093 3.84005 85.768 4.60805C87.0267 5.37605 87.9867 6.41072 88.648 7.71205C89.3093 9.01339 89.64 10.4534 89.64 12.0321V20.1601H85.256V17.4401H85.192C84.872 18.0161 84.4667 18.5387 83.976 19.0081C83.5067 19.4774 82.9307 19.8507 82.248 20.1281C81.5653 20.4054 80.7547 20.5441 79.816 20.5441ZM81.064 16.8001C81.9173 16.8001 82.6533 16.5867 83.272 16.1601C83.8907 15.7334 84.36 15.1574 84.68 14.4321C85.0213 13.6854 85.192 12.8641 85.192 11.9681C85.192 11.0721 85.0213 10.2721 84.68 9.56805C84.36 8.84272 83.8907 8.26672 83.272 7.84006C82.6533 7.41339 81.9173 7.20005 81.064 7.20005C80.1893 7.20005 79.432 7.41339 78.792 7.84006C78.1733 8.26672 77.6933 8.84272 77.352 9.56805C77.032 10.2721 76.872 11.0721 76.872 11.9681C76.872 12.8641 77.032 13.6854 77.352 14.4321C77.6933 15.1574 78.1733 15.7334 78.792 16.1601C79.432 16.5867 80.1893 16.8001 81.064 16.8001Z" fill="black"/>
<path d="M100.536 20.3519C99.576 20.3519 98.7014 20.096 97.912 19.584C97.144 19.072 96.6107 18.3999 96.312 17.5679L91.64 3.64795H96.408L100.184 15.7759C100.227 15.8613 100.28 15.9253 100.344 15.968C100.408 16.0106 100.483 16.0319 100.568 16.0319C100.653 16.0319 100.728 16.0106 100.792 15.968C100.877 15.9253 100.931 15.8613 100.952 15.7759L104.76 3.64795H109.432L104.76 17.536C104.461 18.368 103.917 19.0506 103.128 19.584C102.36 20.096 101.496 20.3519 100.536 20.3519Z" fill="black"/>
<path d="M120.616 20.3519C118.76 20.3519 117.139 19.9999 115.752 19.2959C114.387 18.5706 113.32 17.5893 112.552 16.3519C111.805 15.1146 111.432 13.728 111.432 12.1919C111.432 10.4639 111.784 8.95995 112.488 7.67995C113.192 6.39995 114.152 5.40795 115.368 4.70395C116.584 3.99995 117.96 3.64795 119.496 3.64795C121.331 3.64795 122.813 4.03195 123.944 4.79995C125.096 5.56795 125.939 6.60261 126.472 7.90395C127.005 9.18395 127.272 10.6133 127.272 12.1919C127.272 12.4053 127.261 12.6613 127.24 12.9599C127.219 13.2373 127.187 13.4506 127.144 13.5999H116.104C116.275 14.2613 116.563 14.8159 116.968 15.2639C117.395 15.7119 117.917 16.0533 118.536 16.288C119.176 16.5013 119.891 16.608 120.68 16.608H125.224V20.3519H120.616ZM116.072 10.656H122.888C122.845 10.2506 122.771 9.87728 122.664 9.53595C122.557 9.17328 122.408 8.85328 122.216 8.57595C122.024 8.29862 121.8 8.06395 121.544 7.87195C121.288 7.67995 120.989 7.53061 120.648 7.42395C120.307 7.31728 119.933 7.26395 119.528 7.26395C118.995 7.26395 118.515 7.35995 118.088 7.55195C117.683 7.74395 117.341 7.99995 117.064 8.31995C116.787 8.63995 116.563 9.00262 116.392 9.40795C116.243 9.81328 116.136 10.2293 116.072 10.656Z" fill="black"/>
</svg>
